<?xml version="1.0" standalone="no"?>
<!DOCTYPE svg PUBLIC "-//W3C//DTD SVG 20010904//EN"
 "http://www.w3.org/TR/2001/REC-SVG-20010904/DTD/svg10.dtd">
<svg version="1.0" xmlns="http://www.w3.org/2000/svg"
 width="335.000000pt" height="362.000000pt" viewBox="0 0 335.000000 362.000000"
 preserveAspectRatio="xMidYMid meet">

<g transform="translate(0.000000,362.000000) scale(0.100000,-0.100000)"
fill="#000000" stroke="none">
<path d="M838 3613 c464 -2 1220 -2 1680 0 460 1 81 2 -843 2 -924 0 -1301 -1
-837 -2z"/>
<path d="M370 3506 c0 -3 5 -17 12 -31 10 -23 10 -28 -4 -36 -16 -9 -23 -36
-33 -134 -3 -27 -14 -122 -24 -210 -26 -210 -31 -335 -13 -335 4 0 6 36 4 80
-3 74 5 99 23 70 3 -5 2 -10 -2 -10 -12 0 -3 -83 9 -95 8 -7 9 -5 5 7 -3 9 -3
39 2 65 4 27 4 61 0 75 -4 15 -3 28 2 30 4 2 9 18 11 36 1 18 8 32 15 32 7 0
13 6 13 13 0 6 7 21 16 32 14 19 15 19 20 -3 4 -12 11 -22 17 -22 13 0 34 -27
52 -67 8 -18 19 -33 24 -33 6 0 11 -9 11 -20 0 -11 5 -20 10 -20 6 0 10 4 10
9 0 5 27 22 60 37 33 15 60 31 60 36 0 5 4 7 8 4 18 -11 132 -17 132 -7 0 6 5
11 11 11 6 0 8 -7 5 -16 -3 -8 -2 -12 4 -9 6 3 10 13 10 21 0 8 4 13 9 9 5 -3
12 -1 16 5 15 24 24 7 18 -35 -5 -43 -4 -45 20 -45 20 0 27 -6 33 -32 4 -18 9
-36 10 -40 1 -5 2 -14 3 -20 1 -9 4 -8 11 2 8 13 11 13 19 1 7 -11 11 -10 20
7 6 12 7 23 2 26 -5 4 -12 0 -14 -6 -3 -7 -6 14 -7 47 -1 55 -2 58 -15 41 -9
-12 -15 -15 -15 -7 0 11 -3 11 -17 0 -10 -7 -15 -9 -11 -5 4 5 3 15 -3 23 -9
10 -8 13 5 13 9 0 16 5 16 10 0 6 -4 10 -9 10 -5 0 -12 11 -15 25 -5 20 -13
25 -36 25 -20 0 -30 5 -30 15 0 16 -12 18 -47 9 -26 -7 -31 -24 -8 -24 8 0 15
-5 15 -11 0 -6 -6 -9 -12 -6 -7 2 -19 -3 -26 -12 -7 -9 -12 -11 -11 -6 3 26
-3 35 -25 35 -13 0 -26 -7 -30 -15 -7 -19 -23 -19 -23 0 0 8 4 12 8 9 4 -2 9
1 11 7 2 6 15 13 28 14 14 1 29 3 34 4 4 0 6 8 2 16 -6 16 9 21 18 6 3 -4 17
-6 30 -4 20 4 24 10 23 37 -2 27 -5 32 -24 28 -11 -2 -23 -13 -26 -23 -4 -13
-11 -17 -22 -13 -11 5 -18 0 -22 -15 -3 -13 -13 -21 -27 -21 -26 0 -57 -26
-82 -69 -18 -31 -44 -49 -44 -30 0 5 7 12 15 15 8 4 15 15 15 26 0 10 4 17 9
14 8 -5 41 35 41 49 0 3 -16 -1 -35 -10 -20 -8 -33 -10 -29 -4 4 8 -1 9 -17 4
l-24 -7 23 17 c12 9 27 13 32 10 6 -3 10 -1 10 5 0 6 8 9 18 6 9 -3 23 -1 31
4 10 6 18 4 26 -6 9 -13 13 -12 30 7 17 20 18 22 3 16 -10 -3 -17 -3 -17 1 4
26 -1 34 -16 22 -8 -7 -15 -8 -15 -4 0 5 9 15 20 22 13 8 17 18 13 29 -6 16
-4 16 16 -2 21 -18 21 -20 4 -26 -17 -7 -16 -8 2 -8 17 -1 17 -3 5 -11 -13 -8
-12 -10 3 -10 9 0 17 -6 18 -12 0 -7 4 -4 8 7 5 12 4 23 -3 27 -8 6 -7 8 2 8
15 0 16 26 0 36 -7 5 -9 2 -4 -7 4 -8 0 -5 -8 6 -14 17 -21 18 -56 8 -22 -5
-40 -7 -40 -3 0 12 32 23 58 21 l23 -3 -23 28 c-60 73 -122 123 -179 144 -56
21 -81 38 -40 27 14 -3 18 -1 14 9 -3 8 -16 14 -28 14 -13 0 -27 5 -31 11 -4
8 -9 7 -14 -2 -7 -10 -12 -10 -26 2 -16 13 -17 12 -11 -6 5 -15 1 -13 -18 8
-14 15 -25 26 -25 23z m247 -168 c-3 -8 -6 -5 -6 6 -1 11 2 17 5 13 3 -3 4
-12 1 -19z m36 -63 c-3 -9 -8 -14 -10 -11 -3 3 -2 9 2 15 9 16 15 13 8 -4z
m51 -64 c3 -5 -3 -11 -15 -14 -16 -4 -18 -3 -8 9 13 16 16 17 23 5z m-336 -46
c-3 -3 -9 2 -12 12 -6 14 -5 15 5 6 7 -7 10 -15 7 -18z m312 5 c0 -5 -5 -10
-11 -10 -5 0 -7 5 -4 10 3 6 8 10 11 10 2 0 4 -4 4 -10z m155 -102 c-4 -33 -6
-35 -14 -13 -9 21 -5 35 8 35 5 0 7 -10 6 -22z m-282 -76 c-3 -12 -9 -19 -14
-16 -5 3 -3 14 3 24 15 24 19 21 11 -8z"/>
<path d="M2567 3374 c-4 -4 -7 -14 -7 -23 0 -11 3 -12 11 -4 6 6 10 16 7 23
-2 6 -7 8 -11 4z"/>
<path d="M858 3129 c-3 -8 0 -23 8 -34 16 -21 18 -5 5 29 -6 16 -9 17 -13 5z"/>
<path d="M706 2981 c-3 -5 8 -11 24 -13 24 -4 27 -2 19 9 -13 15 -35 17 -43 4z"/>
<path d="M2375 2980 c-4 -6 -12 -8 -18 -4 -7 3 -3 -2 7 -10 26 -21 36 -20 36
4 0 21 -15 27 -25 10z"/>
<path d="M2115 2970 c3 -5 14 -10 23 -10 15 0 15 2 2 10 -20 13 -33 13 -25 0z"/>
<path d="M2180 2963 c0 -8 6 -13 13 -10 6 2 24 -5 40 -15 25 -18 28 -18 43 -3
20 20 20 20 -43 32 -44 8 -53 8 -53 -4z"/>
<path d="M1961 2957 c-1 -11 -5 -15 -13 -11 -13 8 -68 12 -68 5 0 -3 12 -18
28 -34 l27 -29 -50 26 c-27 15 -53 32 -57 39 -6 9 -8 9 -8 0 0 -9 -7 -10 -25
-3 -15 6 -25 6 -25 0 0 -5 -13 -8 -30 -7 -16 1 -30 5 -30 8 0 3 -13 6 -30 6
-26 0 -30 -4 -30 -26 -1 -23 -2 -24 -11 -8 -5 9 -15 17 -20 17 -6 0 -7 -4 -4
-10 4 -6 -6 -10 -24 -10 -16 0 -37 -7 -45 -16 -9 -9 -16 -11 -16 -4 0 6 -5 8
-12 3 -7 -4 -23 -6 -35 -4 -14 1 -23 -3 -23 -10 0 -10 -3 -10 -12 -1 -20 20
-28 14 -28 -19 0 -19 -4 -28 -11 -23 -7 4 -9 -1 -5 -15 3 -11 9 -30 12 -41 3
-11 2 -20 -1 -20 -14 0 -35 29 -35 48 0 15 -6 20 -25 18 -16 0 -25 -7 -25 -18
0 -23 18 -32 22 -11 2 10 8 -7 14 -37 9 -49 8 -56 -6 -56 -10 0 -17 10 -18 24
-1 13 -6 31 -12 40 -7 12 -8 4 -4 -28 4 -25 12 -52 19 -60 7 -8 12 -30 10 -48
-1 -17 0 -30 3 -27 3 2 11 -3 19 -13 13 -15 14 -13 9 17 -6 33 -5 34 13 17 17
-16 19 -16 25 0 4 10 2 22 -4 28 -15 15 -12 46 5 46 9 0 20 -12 25 -26 13 -33
13 -37 -2 -28 -7 4 -1 -8 13 -27 13 -19 24 -38 24 -44 0 -5 12 -11 28 -13 l27
-3 -25 38 c-15 20 -30 40 -34 43 -10 6 -41 98 -41 119 1 13 4 12 16 -4 13 -17
16 -18 24 -5 9 13 10 13 10 0 0 -8 8 -24 17 -35 15 -20 15 -19 9 5 -20 78 -20
78 3 45 11 -16 21 -24 21 -16 0 11 3 11 17 0 17 -13 17 -13 0 13 -21 33 -23
61 -2 34 13 -17 15 -18 15 -3 0 22 9 22 26 0 13 -17 14 -17 8 0 -6 16 4 21 44
20 6 -1 12 5 12 12 0 8 9 10 25 7 26 -4 35 12 13 22 -7 3 2 5 20 3 34 -4 39 2
20 22 -11 10 -7 11 17 5 17 -4 40 -14 53 -22 12 -8 26 -12 29 -8 4 3 19 -5 34
-20 15 -14 29 -25 31 -23 1 1 24 -10 51 -25 58 -34 128 -56 156 -49 42 11 17
93 -28 93 -9 0 -26 7 -37 15 -10 8 -28 15 -40 15 -11 0 -31 11 -44 25 -23 24
-23 26 -5 38 10 8 15 20 12 28 -4 10 -6 9 -6 -4z"/>
<path d="M665 2950 c-4 -6 9 -10 36 -10 47 0 47 9 1 16 -17 3 -33 0 -37 -6z"/>
<path d="M820 2946 c0 -10 8 -16 22 -16 12 0 19 1 17 3 -2 1 -12 9 -21 16 -15
12 -18 11 -18 -3z"/>
<path d="M568 2929 c-9 -5 -16 -15 -14 -22 1 -6 1 -9 -1 -4 -9 15 -22 6 -20
-14 1 -15 6 -19 22 -15 11 3 24 6 28 6 5 0 5 5 2 10 -3 6 -2 10 2 10 5 0 9 9
9 20 0 22 -4 24 -28 9z"/>
<path d="M2300 2926 c0 -17 18 -31 48 -39 14 -3 22 -1 22 8 0 16 -25 37 -33
28 -4 -3 -7 -1 -7 5 0 7 -7 12 -15 12 -8 0 -15 -6 -15 -14z"/>
<path d="M615 2910 c8 -13 35 -13 55 0 11 7 5 10 -23 10 -23 0 -36 -4 -32 -10z"/>
<path d="M2383 2879 c0 -18 6 -29 14 -29 7 0 13 7 13 15 0 22 9 19 32 -10 20
-26 38 -33 38 -15 0 17 -40 51 -69 60 -26 7 -28 5 -28 -21z"/>
<path d="M1011 2872 c-6 -11 -13 -40 -14 -64 -2 -24 -11 -55 -21 -70 -10 -15
-19 -43 -20 -63 -3 -29 -1 -33 11 -23 12 10 13 7 7 -16 -6 -25 -1 -22 42 24
27 29 49 58 49 64 0 14 26 15 44 2 11 -9 13 -7 7 11 -4 12 -2 24 4 28 5 3 10
1 10 -5 0 -6 5 -8 11 -5 6 4 8 14 4 23 -3 8 0 19 7 23 7 4 9 12 4 16 -4 4 -14
-1 -22 -12 -8 -11 -20 -20 -27 -20 -7 0 -13 -6 -13 -12 -3 -26 -6 -28 -14 -8
-7 19 -8 19 -15 1 -5 -10 -19 -30 -32 -45 l-25 -26 18 40 c11 22 24 44 29 48
7 6 6 10 -1 13 -6 2 -9 17 -7 32 3 15 -2 36 -10 46 -14 19 -15 19 -26 -2z"/>
<path d="M1067 2846 c-5 -15 -6 -31 -3 -34 8 -8 18 25 14 45 -3 13 -6 10 -11
-11z"/>
<path d="M549 2853 c-10 -2 -16 -16 -17 -41 -1 -20 -4 -49 -7 -63 -5 -22 -2
-28 20 -33 14 -4 23 -11 20 -16 -3 -5 16 -7 47 -3 67 7 74 13 17 14 -32 0 -39
3 -24 8 11 5 25 6 31 4 7 -2 15 0 19 6 4 7 -6 11 -27 11 -18 1 -44 7 -57 14
l-24 13 38 13 c23 8 33 15 25 20 -8 5 -7 9 4 13 23 9 20 30 -3 24 -12 -3 -22
1 -25 9 -5 14 -9 15 -37 7z"/>
<path d="M655 2840 c-8 -13 15 -13 35 0 12 8 11 10 -7 10 -12 0 -25 -4 -28
-10z"/>
<path d="M897 2843 c-11 -10 -8 -25 3 -18 6 3 13 -1 16 -10 5 -13 9 -14 15 -4
13 21 -17 49 -34 32z"/>
<path d="M815 2830 c-16 -7 -17 -9 -3 -9 9 -1 20 4 23 9 7 11 7 11 -20 0z"/>
<path d="M1086 2825 c-11 -30 -6 -40 10 -20 8 11 17 19 19 18 3 -2 5 0 6 5 1
15 -29 12 -35 -3z"/>
<path d="M2630 2792 c0 -59 10 -67 28 -20 11 29 10 35 -8 52 -20 20 -20 20
-20 -32z"/>
<path d="M663 2819 c-50 -15 -39 -22 22 -16 70 7 108 27 50 26 -22 -1 -55 -5
-72 -10z"/>
<path d="M956 2814 c-19 -19 -21 -31 -3 -15 8 6 17 8 20 4 4 -3 7 1 7 10 0 21
-4 21 -24 1z"/>
<path d="M1624 2788 c1 -7 5 -19 9 -25 11 -18 -8 -16 -27 2 -25 26 -31 16 -6
-10 24 -25 16 -36 -9 -12 -11 10 -12 9 -5 -3 13 -23 14 -44 2 -51 -9 -6 -9
-11 0 -22 10 -12 9 -16 -3 -21 -8 -3 -15 -10 -15 -16 0 -16 40 -12 46 5 4 8
12 15 19 15 8 0 26 5 42 12 15 6 39 12 53 12 16 1 24 6 22 15 -2 10 4 12 23 7
14 -4 25 -2 25 3 0 5 20 15 45 22 55 16 46 23 -64 50 -86 21 -105 23 -96 9 3
-5 -7 -3 -22 5 -34 18 -42 19 -39 3z"/>
<path d="M2266 2773 c-12 -13 -6 -45 7 -40 10 4 13 -2 9 -19 -4 -25 12 -34 21
-11 4 8 6 6 6 -4 1 -17 41 -68 41 -53 0 5 6 2 13 -7 25 -33 63 -50 88 -40 17
7 19 10 7 10 -10 1 -18 6 -18 12 0 6 7 9 15 5 9 -3 15 0 15 10 0 9 -6 14 -12
12 -14 -5 -36 15 -62 56 -13 20 -21 25 -26 17 -4 -8 -10 0 -14 21 -7 31 -8 32
-21 14 -8 -11 -15 -14 -15 -7 0 7 -4 9 -10 6 -5 -3 -10 -2 -10 3 0 12 -26 23
-34 15z"/>
<path d="M1166 2755 c4 -8 11 -15 16 -15 6 0 5 6 -2 15 -7 8 -14 15 -16 15 -2
0 -1 -7 2 -15z"/>
<path d="M2755 2734 c-74 -49 -91 -86 -56 -118 21 -19 181 -79 189 -71 3 3 0
5 -7 5 -7 0 -10 4 -7 8 3 5 -2 21 -10 37 -8 16 -13 34 -10 41 3 7 -2 18 -10
25 -13 10 -12 14 2 30 15 16 14 17 -5 12 -16 -4 -19 -1 -16 16 2 12 7 27 12
34 4 6 -5 4 -20 -5 -32 -22 -44 -23 -27 -3 18 21 10 19 -35 -11z"/>
<path d="M890 2723 c0 -4 5 -21 12 -39 14 -38 5 -66 -18 -57 -15 5 -15 7 0 15
19 11 20 17 1 42 -13 17 -18 17 -45 6 -33 -14 -40 -29 -12 -31 9 -1 -2 -5 -25
-9 -22 -5 -64 -25 -92 -45 -28 -20 -55 -34 -61 -30 -6 4 -9 2 -8 -4 2 -5 -36
-36 -83 -69 -113 -77 -164 -108 -156 -95 4 6 -9 37 -28 69 l-35 58 -2 -80 c0
-43 -1 -84 -1 -91 0 -7 -41 -40 -92 -73 -142 -94 -157 -151 -77 -282 23 -38
39 -68 37 -68 -7 0 24 -49 46 -73 18 -19 33 -92 24 -108 -4 -5 5 -9 19 -9 19
0 26 -5 26 -19 0 -11 -6 -22 -12 -24 -10 -4 -9 -6 1 -6 11 -1 11 -4 0 -17 -12
-15 -11 -16 9 -10 27 9 29 -5 2 -29 -11 -10 -18 -21 -15 -25 2 -4 -2 -15 -9
-25 -14 -20 -10 -55 6 -55 6 0 8 -7 4 -15 -3 -8 -1 -15 4 -15 6 0 10 7 10 15
0 8 8 19 18 24 11 6 43 46 71 90 29 44 58 79 63 78 5 -1 15 7 21 18 7 10 27
35 44 55 18 19 33 41 33 49 0 7 6 11 15 7 8 -3 19 3 25 13 28 53 113 111 162
111 52 0 102 -23 144 -65 30 -31 54 -46 81 -50 97 -16 166 -79 190 -177 11
-42 22 -61 58 -92 25 -21 45 -44 45 -52 0 -8 4 -14 9 -14 22 0 49 -172 39
-252 -4 -34 -11 -103 -17 -153 -5 -49 -21 -137 -36 -195 -14 -58 -31 -127 -36
-155 -18 -93 -27 -337 -18 -460 5 -66 12 -159 15 -208 l6 -87 -243 1 c-210 1
-239 3 -218 15 21 12 22 13 4 13 -11 0 -29 -6 -39 -14 -33 -25 -39 -17 -9 10
l28 25 -35 -17 c-19 -10 -36 -21 -38 -25 -5 -11 -30 -10 -36 1 -3 5 1 27 9 50
8 24 10 43 4 46 -5 4 -9 5 -10 3 0 -2 -3 -16 -5 -32 -3 -16 -9 -37 -14 -47 -6
-11 -6 -19 0 -22 6 -3 5 -4 -2 -3 -15 4 -12 45 5 73 5 7 4 13 -1 13 -12 0 -33
-25 -31 -36 1 -5 -1 -17 -6 -27 -6 -15 -10 -16 -17 -5 -7 10 -11 9 -22 -5 -9
-12 -15 -14 -18 -6 -5 14 41 113 49 105 3 -3 0 -12 -7 -21 -7 -9 -10 -18 -7
-22 4 -3 2 -12 -4 -20 -9 -10 -8 -13 1 -13 6 0 19 18 28 40 10 23 22 38 29 35
7 -2 15 1 19 7 5 7 2 8 -6 3 -10 -6 -12 -4 -6 10 5 13 3 15 -6 8 -18 -15 -46
-12 -52 4 -3 8 -11 11 -17 7 -8 -4 -9 1 -4 17 l6 24 -20 -25 c-26 -32 -27 -14
-1 25 11 17 20 25 20 18 0 -9 10 -8 41 2 38 14 40 14 28 -1 -11 -14 -10 -15 7
-12 10 1 25 10 32 18 10 13 11 12 5 -5 l-6 -20 24 20 c13 11 19 13 13 5 -12
-16 -15 -50 -4 -50 3 0 12 6 19 13 10 8 12 8 7 0 -3 -6 -2 -15 4 -18 6 -4 9
-1 8 6 -2 6 10 13 26 16 27 4 28 3 15 -13 -9 -11 -9 -15 -2 -10 7 4 23 9 34
11 30 6 37 15 11 15 -29 0 -38 19 -16 34 15 11 13 12 -16 8 -23 -3 -31 -1 -26
7 4 7 1 9 -8 5 -9 -3 -14 -10 -13 -16 1 -5 -9 -17 -23 -26 -24 -16 -25 -16 -9
3 23 29 30 53 17 61 -7 4 -8 3 -4 -4 4 -7 3 -12 -3 -12 -5 0 -13 5 -17 11 -5
8 -10 6 -16 -5 -12 -21 -29 -11 -21 11 4 11 3 14 -5 9 -7 -4 -12 -2 -12 4 0 6
21 24 47 40 26 17 40 30 31 30 -8 0 -21 -7 -28 -15 -7 -8 -18 -15 -25 -15 -7
0 -18 -7 -25 -15 -7 -9 -15 -13 -18 -10 -3 3 -11 0 -19 -6 -10 -9 -13 -8 -13
2 -1 8 -7 3 -15 -11 -14 -25 -14 -24 -13 17 1 23 4 40 8 38 8 -5 46 33 39 39
-2 2 -13 6 -23 8 -14 2 -22 -4 -26 -22 -4 -14 -12 -24 -18 -22 -7 1 -11 -1
-10 -5 1 -5 -6 -22 -15 -40 -9 -18 -17 -42 -17 -53 0 -12 -8 -29 -17 -38 -16
-16 -16 -15 -9 8 5 14 10 50 12 80 2 30 9 65 16 77 9 17 8 26 -3 39 -11 13
-11 18 -1 21 6 3 12 14 12 26 1 12 10 38 21 57 11 19 18 27 14 16 -3 -10 0
-26 7 -34 11 -13 10 -15 -5 -9 -11 4 -16 3 -12 -4 4 -5 1 -16 -5 -24 -7 -8
-10 -22 -6 -30 3 -8 0 -15 -6 -15 -9 0 -9 -3 -1 -11 7 -7 6 -21 -3 -47 -20
-55 -16 -73 5 -27 11 22 20 36 20 30 1 -5 7 1 14 15 7 14 22 25 32 25 25 1 45
13 45 28 0 8 -3 8 -12 -1 -18 -18 -31 -15 -24 5 6 14 2 12 -17 -5 -30 -29 -46
-29 -21 1 10 12 12 16 4 10 -18 -16 -27 -16 -27 0 0 7 11 21 23 30 19 14 22
15 18 3 -5 -14 -2 -13 26 0 17 9 35 26 40 39 5 13 14 26 20 30 5 3 8 10 5 14
-7 12 32 44 57 48 18 3 19 1 7 -14 -7 -10 -1 -7 14 6 15 14 27 26 27 27 0 4
-39 -4 -50 -11 -5 -3 -7 0 -4 8 3 8 2 17 -3 20 -5 3 -22 -15 -38 -41 -16 -26
-34 -50 -40 -54 -18 -13 -28 -8 -15 7 11 13 11 18 0 28 -9 8 -11 8 -7 1 4 -7
0 -14 -8 -18 -25 -9 -17 28 12 55 14 13 23 17 18 9 -6 -12 -5 -13 6 -3 19 18
29 16 23 -5 -4 -11 1 -8 14 8 11 13 18 29 14 35 -3 5 2 4 11 -3 9 -8 21 -11
26 -7 7 3 8 0 5 -10 -5 -13 -2 -14 20 -5 18 6 25 6 21 0 -9 -15 7 -11 30 6 14
11 16 18 8 21 -9 3 -9 11 3 28 l16 24 -31 -15 c-17 -9 -31 -20 -31 -25 0 -5
-5 -9 -11 -9 -6 0 -9 7 -5 15 7 18 -5 20 -23 2 -11 -10 -11 -8 0 10 7 12 16
20 20 17 4 -2 10 0 13 5 10 16 -18 7 -51 -17 -17 -12 -40 -22 -52 -22 -15 0
-19 -4 -14 -17 7 -17 6 -17 -11 0 -21 21 -27 22 -20 2 6 -15 -7 -21 -19 -9
-10 10 12 44 27 44 16 0 29 27 20 41 -3 5 2 19 10 31 9 12 16 17 16 10 0 -8 5
-10 12 -6 8 5 9 2 5 -10 -10 -25 9 -10 33 27 l22 32 -22 -24 -21 -25 3 25 c2
13 8 31 13 39 8 13 7 13 -8 1 -9 -7 -14 -17 -11 -22 3 -5 -2 -6 -10 -3 -9 3
-12 12 -8 22 5 15 4 15 -11 3 -15 -12 -17 -12 -12 5 3 10 -6 -5 -20 -35 -14
-29 -25 -57 -25 -62 0 -5 -5 -9 -10 -9 -13 0 -2 50 16 71 8 8 14 22 14 30 0 9
-6 7 -18 -7 -9 -12 -25 -20 -34 -19 -19 3 -24 -10 -9 -19 5 -4 12 0 15 6 3 7
3 2 -1 -12 -3 -14 -6 -30 -6 -37 0 -22 -17 -2 -18 20 0 15 -6 8 -18 -22 -11
-27 -20 -38 -23 -30 -3 8 0 23 8 34 8 10 14 26 14 34 -1 11 -6 7 -16 -9 -9
-14 -13 -17 -10 -7 4 11 8 31 11 45 3 20 1 17 -11 -10 -18 -41 -39 -52 -30
-15 3 12 -1 6 -9 -13 -35 -79 -34 -78 -35 -40 -1 33 -2 34 -15 16 -8 -10 -12
-24 -8 -30 3 -6 2 -7 -3 -3 -5 5 -9 13 -9 18 0 5 -4 9 -10 9 -5 -1 -12 16 -15
36 -3 21 -11 39 -18 40 -7 1 -8 0 -3 -2 10 -6 3 -44 -9 -44 -4 0 -12 12 -18
26 -10 20 -10 24 0 18 7 -4 5 2 -5 13 -20 23 -25 55 -5 35 7 -7 15 -12 19 -12
11 0 18 39 8 46 -5 3 -6 10 -3 16 4 7 2 8 -5 4 -6 -4 -9 -12 -6 -17 4 -5 4 -9
0 -9 -3 0 -16 24 -29 53 -21 46 -23 53 -9 61 15 8 38 -12 27 -23 -3 -3 -9 1
-14 9 -9 13 -10 13 -10 0 0 -9 20 -21 51 -31 47 -15 51 -15 59 2 13 23 12 29
-1 29 -5 0 -8 -4 -5 -9 11 -17 -29 -17 -46 1 -17 17 -17 18 0 16 9 -1 25 0 36
0 15 2 16 5 6 17 -10 12 -9 16 5 21 11 4 24 -2 38 -17 l22 -23 -23 18 c-20 17
-22 17 -22 2 0 -9 11 -21 25 -26 14 -5 25 -12 25 -15 0 -4 -6 -3 -12 1 -10 6
-10 4 0 -7 16 -17 15 -30 -2 -23 -8 3 -17 0 -22 -7 -4 -8 -3 -10 4 -5 7 4 12
3 12 -3 0 -5 3 -16 6 -25 5 -12 0 -16 -17 -16 -20 0 -21 2 -9 11 13 9 12 10
-3 5 -10 -3 -30 2 -45 11 l-27 16 25 -24 c14 -13 31 -35 38 -49 12 -23 12 -23
8 -2 -5 27 18 30 30 5 6 -13 9 -6 13 27 5 37 10 46 29 48 23 4 29 16 12 27
-15 9 -12 37 7 60 15 20 15 19 10 -5 -7 -26 10 -107 24 -116 5 -3 6 2 3 10 -4
11 0 14 17 11 12 -3 28 0 35 6 10 8 11 4 2 -23 -6 -18 -13 -39 -14 -46 -2 -7
-8 -10 -14 -7 -12 7 -13 -5 -1 -23 11 -19 54 63 53 103 0 48 -2 51 -16 32 -9
-12 -16 -14 -21 -8 -3 6 -2 11 4 11 13 0 31 33 37 68 5 25 4 25 -14 9 -10 -9
-23 -17 -29 -17 -9 0 -16 -11 -42 -70 l-10 -25 5 28 c4 18 2 27 -6 27 -9 0 -6
8 6 22 10 12 14 18 7 15 -20 -12 -21 17 -2 48 14 24 20 70 9 70 -8 0 -6 223 3
233 5 7 6 16 2 20 -4 4 -10 1 -12 -6 -7 -18 -43 41 -43 68 0 11 -4 20 -9 20
-5 0 -11 9 -14 20 -3 11 -1 20 3 20 5 0 7 24 5 53 -5 49 -4 50 6 18 6 -19 9
-46 6 -59 -3 -16 -1 -20 5 -14 12 12 29 94 18 87 -5 -3 -17 13 -27 35 -15 29
-23 36 -31 28 -7 -7 -12 -18 -12 -26 0 -7 -4 -11 -9 -8 -13 9 -36 -54 -36
-101 0 -24 -3 -43 -7 -43 -5 0 -8 -4 -8 -10 0 -5 5 -9 12 -7 18 4 27 -46 11
-65 -11 -12 -12 -21 -4 -37 16 -29 13 -40 -9 -34 -12 3 -20 0 -20 -6 0 -7 -4
-9 -10 -6 -5 3 -10 1 -10 -4 0 -6 5 -11 11 -11 6 0 9 -7 5 -15 -3 -8 1 -18 9
-22 8 -5 -9 -7 -38 -6 -70 2 -69 1 -61 15 5 7 3 8 -6 3 -10 -6 -10 -10 2 -19
9 -6 17 -20 19 -30 2 -11 11 -22 19 -24 12 -4 13 -2 3 9 -18 22 34 43 71 30
27 -11 35 -35 14 -47 -6 -4 -8 -3 -5 3 4 6 0 16 -8 23 -12 10 -15 9 -15 -4 0
-10 -5 -14 -10 -11 -6 4 -8 10 -5 15 3 5 1 11 -4 14 -19 12 -4 -28 18 -45 13
-11 17 -20 11 -24 -6 -4 -18 -1 -27 7 -11 8 -14 8 -10 1 6 -9 -2 -10 -27 -6
-19 3 -43 2 -53 -2 -17 -7 -17 -8 2 -15 11 -5 30 -6 43 -3 12 3 29 0 37 -7 11
-9 15 -9 15 -1 0 7 5 9 11 5 6 -3 9 -19 6 -34 -3 -15 -1 -32 6 -39 21 -21 -2
-11 -26 11 -32 31 -63 48 -88 48 -16 0 -20 -6 -18 -28 4 -50 -11 -92 -33 -89
-13 1 -22 -5 -24 -16 -1 -10 -9 -26 -17 -35 -8 -10 -13 -22 -10 -28 2 -6 -6
-19 -17 -29 -11 -10 -20 -24 -20 -32 0 -7 -3 -13 -8 -13 -4 0 -13 -9 -20 -21
-8 -12 -9 -18 -3 -14 23 14 31 -7 9 -25 -22 -18 -22 -19 -3 -20 12 0 -2 -11
-35 -27 -51 -25 -53 -27 -30 -33 27 -8 24 -10 -48 -29 -31 -9 -42 -17 -42 -31
0 -23 7 -24 81 -10 30 6 67 8 83 4 l30 -6 -25 -14 c-22 -12 -22 -13 -4 -15 11
-1 35 -1 52 0 31 2 32 1 24 -21 -10 -27 -39 -35 -130 -37 -51 -1 -62 -4 -58
-16 5 -11 0 -13 -23 -8 l-30 6 0 -282 0 -281 1678 2 c922 2 1493 5 1269 8
l-408 5 -40 40 c-36 35 -69 83 -69 100 0 3 25 -9 55 -26 64 -36 73 -31 15 7
-31 21 -38 30 -29 40 8 10 4 19 -16 36 -30 25 -57 72 -49 81 4 3 18 -5 32 -19
29 -26 48 -32 36 -12 -26 44 -52 69 -80 78 -25 9 -32 16 -30 35 1 25 14 32 31
16 15 -13 105 -30 111 -20 2 5 -2 22 -11 38 -15 30 -38 40 -125 55 l-35 6 30
-25 30 -25 -30 9 c-58 16 -115 51 -130 81 -21 41 -19 44 16 19 23 -16 33 -19
39 -9 6 9 12 10 30 0 20 -10 22 -10 17 3 -3 8 16 0 45 -20 38 -25 60 -33 87
-31 21 1 42 -2 49 -6 16 -9 15 -3 -3 40 l-14 35 34 -3 c19 -1 35 -5 35 -8 0
-4 18 -16 41 -28 l41 -22 -54 52 c-31 30 -48 53 -40 55 6 3 9 9 6 15 -3 5 8 2
25 -6 17 -9 31 -21 31 -26 0 -6 5 -10 11 -10 5 0 8 4 5 9 -4 5 3 7 14 4 17 -5
18 -8 8 -22 -12 -14 -11 -15 5 -2 16 13 14 18 -33 67 -58 62 -64 84 -20 84 38
0 38 8 -2 43 l-33 27 30 -6 c17 -3 40 -13 52 -20 12 -8 25 -14 27 -14 10 0 -7
35 -22 48 -24 19 8 16 36 -4 12 -8 22 -10 22 -5 0 18 20 12 45 -13 13 -14 35
-28 47 -32 20 -6 21 -5 9 9 -11 14 -11 18 4 23 11 4 28 -5 52 -27 21 -20 31
-26 25 -14 -6 11 -29 37 -52 58 -36 34 -39 40 -29 60 7 12 19 27 27 33 11 8
13 19 8 40 -7 27 -7 28 12 11 21 -19 47 -23 36 -6 -4 8 1 9 17 4 23 -7 23 -7
7 12 -21 23 -24 37 -5 27 6 -4 4 2 -7 14 -15 18 -16 24 -6 37 10 12 10 18 -1
31 -8 9 -14 22 -14 28 0 7 -17 27 -37 45 -21 18 -38 28 -38 21 0 -6 -5 -8 -11
-5 -6 4 -17 -2 -25 -14 -12 -17 -19 -19 -34 -11 -14 7 -23 6 -34 -5 -13 -13
-15 -13 -21 6 -4 11 -4 23 -1 26 3 4 6 0 6 -8 0 -8 6 -4 16 9 9 13 13 31 9 42
-7 22 10 28 18 8 4 -8 8 -4 12 9 4 13 11 20 16 18 4 -3 15 10 25 30 9 19 22
35 29 35 7 0 15 9 18 21 3 12 10 18 16 15 5 -3 20 8 32 26 13 18 28 36 33 40
7 5 6 21 -2 50 -7 24 -17 58 -22 77 -10 38 -26 58 -37 47 -4 -4 -1 -11 7 -16
11 -7 11 -10 2 -10 -9 0 -8 -7 4 -25 9 -14 14 -28 10 -32 -3 -3 -6 0 -6 8 0 9
-7 5 -19 -10 l-18 -23 -29 45 c-19 30 -31 42 -36 34 -5 -7 -8 -1 -8 16 0 15
-4 27 -10 27 -5 0 -10 6 -10 14 0 7 -7 27 -15 42 -8 16 -14 38 -14 49 0 12 5
6 11 -14 8 -29 49 -94 69 -111 3 -3 9 -12 12 -20 3 -8 6 -1 6 17 1 23 -3 31
-12 27 -10 -4 -11 6 -3 50 6 30 12 53 14 51 3 -2 12 3 21 12 15 16 16 14 19
-18 5 -48 22 -62 23 -19 1 19 1 42 0 52 -1 9 3 19 9 23 5 3 10 16 11 28 0 21
1 21 9 2 7 -15 8 -11 4 15 -5 31 -1 39 26 63 17 15 28 32 25 37 -10 16 22 12
37 -4 28 -31 73 -90 74 -98 1 -4 2 -9 3 -10 2 -2 4 -14 7 -28 2 -14 7 -32 11
-40 3 -8 7 -18 7 -22 3 -22 21 -18 51 12 30 29 33 36 22 54 -6 12 -12 32 -13
46 -1 14 -8 41 -16 60 -8 19 -14 38 -14 42 1 3 -11 16 -27 28 -15 12 -25 25
-23 29 3 4 -2 21 -10 37 -22 42 -28 121 -12 174 14 48 13 104 -3 95 -5 -4 -10
0 -10 7 -1 7 -2 18 -4 23 -1 6 -3 16 -3 23 -4 30 -22 -2 -22 -39 0 -43 -6 -48
-25 -22 -9 12 -10 22 -3 33 8 12 6 27 -7 53 -18 39 -37 48 -72 35 -25 -8 -53
-1 -53 14 0 5 11 20 25 34 24 24 31 25 109 22 64 -2 82 0 75 9 -7 7 -29 9 -65
6 -51 -5 -58 -4 -78 20 -16 18 -31 25 -59 25 -21 0 -43 4 -50 10 -15 12 -96 6
-146 -12 -22 -7 -47 -9 -59 -5 -12 5 -24 4 -27 -2 -4 -5 -11 -7 -16 -4 -5 4
-23 -7 -39 -23 -24 -25 -31 -27 -41 -16 -6 8 -17 14 -25 14 -7 0 -17 8 -23 18
-8 14 -13 15 -30 5 -29 -18 -43 -16 -103 11 -29 13 -64 27 -77 31 -38 12 -82
41 -100 67 -18 28 -111 114 -111 104 0 -4 -10 -1 -22 6 -29 16 -58 18 -58 5 0
-8 -3 -8 -11 0 -13 13 -88 -10 -129 -40 -13 -9 -30 -17 -38 -17 -7 0 -10 -4
-7 -10 3 -5 -7 -27 -23 -47 -16 -21 -33 -51 -36 -66 -4 -17 -20 -36 -41 -49
-19 -11 -35 -24 -35 -29 0 -14 12 -11 25 8 11 15 14 15 35 -5 13 -12 27 -22
32 -22 4 0 8 -9 8 -20 0 -10 10 -25 23 -31 20 -11 21 -11 8 4 -17 22 -9 82 16
110 34 37 113 67 181 67 109 0 173 -50 188 -147 6 -38 2 -60 -21 -115 -6 -14
-2 -15 31 -8 21 5 56 22 80 38 23 16 46 27 51 23 15 -10 36 -69 28 -80 -10
-17 44 -34 113 -35 67 -2 76 3 87 46 8 32 29 42 57 27 11 -6 26 -8 33 -5 8 3
17 1 20 -4 4 -6 17 -7 30 -4 13 3 48 -1 77 -10 29 -8 86 -16 127 -17 81 -2 98
-13 147 -96 26 -44 48 -153 31 -153 -5 0 -7 -7 -4 -14 4 -10 1 -13 -9 -9 -7 3
-14 0 -14 -7 0 -7 -27 -38 -60 -70 -33 -32 -60 -63 -60 -70 0 -10 -4 -9 -16 1
-13 10 -17 10 -25 -2 -5 -8 -9 -21 -9 -29 0 -11 -4 -9 -12 5 -12 19 -13 18
-19 -10 l-6 -30 -8 32 -7 33 -29 -31 c-17 -18 -29 -44 -32 -67 l-4 -37 -1 39
c-2 33 -5 38 -22 33 -15 -4 -20 0 -20 16 0 16 3 18 9 9 6 -10 12 -7 24 12 25
37 22 66 -4 59 -11 -3 -23 -12 -26 -19 -3 -8 -26 -24 -51 -36 -26 -13 -53 -31
-60 -40 -7 -10 -21 -18 -30 -18 -9 0 -26 -7 -36 -15 -10 -8 -22 -12 -26 -10
-15 9 -108 -105 -146 -179 -21 -41 -40 -73 -42 -71 -3 2 16 44 42 92 l46 88
-41 -45 c-94 -105 -225 -332 -298 -517 -11 -29 -39 -88 -61 -133 -22 -44 -43
-97 -46 -117 -18 -127 -21 -140 -24 -103 l-2 35 -13 -30 c-18 -39 -18 -24 0
50 8 33 14 65 14 70 0 16 -31 -45 -56 -110 -20 -53 -22 -55 -17 -20 4 22 13
56 21 75 68 159 94 230 85 230 -4 0 -19 -11 -32 -23 -16 -15 -32 -21 -43 -18
-16 6 -15 9 8 31 17 16 25 19 25 9 0 -9 3 -10 8 -3 4 6 14 13 23 16 16 6 55
145 44 156 -3 3 -19 -4 -35 -17 l-30 -22 0 21 c0 18 -4 20 -22 14 -13 -3 -28
-11 -35 -16 -7 -5 -14 -5 -18 1 -3 6 10 17 28 25 19 8 38 19 41 25 4 6 12 9
17 6 5 -3 6 1 3 9 -5 14 -8 14 -30 0 -46 -30 -45 -8 2 41 27 28 49 44 52 37 2
-7 9 -9 14 -5 7 4 9 -2 5 -16 -5 -19 -3 -20 10 -10 11 10 16 10 22 0 5 -8 16
8 31 46 30 76 70 156 75 151 3 -2 -9 -39 -25 -82 -16 -43 -26 -85 -23 -94 4
-15 3 -15 -6 -2 -11 13 -12 13 -10 0 1 -8 -1 -23 -6 -33 -15 -36 3 -26 39 20
21 28 34 53 31 62 -3 9 -3 12 1 9 6 -7 25 21 105 155 52 87 126 192 153 216
40 37 31 20 -27 -55 -57 -74 -124 -180 -179 -284 -19 -36 -48 -87 -65 -115
-43 -74 -95 -189 -79 -176 8 7 43 67 77 134 71 141 92 173 207 320 79 102 100
144 50 101 -19 -16 -19 -14 4 16 14 19 33 34 42 34 8 -1 38 22 66 51 29 31 62
56 80 60 28 6 102 69 93 79 -3 3 4 2 16 -1 12 -3 21 -10 21 -17 1 -6 7 4 15
22 9 20 11 40 7 48 -7 12 -12 12 -34 -6 -14 -11 -34 -20 -43 -20 -17 0 -77
-38 -83 -52 -2 -4 -10 -8 -17 -8 -8 0 -24 -13 -37 -28 -13 -16 -39 -35 -58
-42 -19 -7 -56 -33 -82 -57 -41 -38 -68 -53 -68 -38 0 13 28 65 54 98 l29 39
-49 -26 c-64 -33 -115 -81 -119 -112 -1 -13 2 -24 8 -24 6 0 -2 -14 -18 -30
-16 -17 -34 -30 -42 -30 -7 0 -29 -17 -50 -38 -21 -21 -35 -33 -30 -28 12 16
8 25 -10 24 -10 0 -25 2 -34 6 -9 4 -22 -1 -34 -14 -11 -12 -13 -20 -6 -20 9
0 9 -5 0 -21 -8 -16 -8 -23 0 -29 8 -4 -1 -15 -23 -31 -20 -13 -36 -28 -36
-32 0 -5 -4 -5 -10 -2 -5 3 -10 2 -10 -4 0 -17 18 -22 24 -6 3 8 13 15 23 15
15 0 14 -4 -7 -24 l-25 -24 -21 26 c-15 18 -23 22 -28 13 -5 -7 -18 -16 -31
-21 -14 -5 -38 -36 -60 -74 -19 -35 -42 -67 -50 -69 -9 -4 -28 18 -56 66 -56
97 -55 94 -36 78 15 -12 19 -12 32 5 8 10 15 23 15 27 0 5 5 5 11 1 7 -4 1
-17 -16 -34 l-27 -29 22 -30 c18 -26 40 -34 40 -15 0 3 -5 2 -12 -2 -7 -5 -8
-3 -4 5 5 7 14 10 21 7 15 -5 62 40 52 51 -4 3 -18 -4 -31 -16 -15 -14 -26
-18 -30 -12 -4 6 7 17 24 26 16 8 30 20 30 26 0 6 4 8 9 5 4 -3 16 3 26 14 31
34 -7 24 -40 -10 -16 -16 -38 -30 -48 -30 -20 0 -20 0 -1 21 10 12 32 28 49
36 16 9 58 42 92 74 43 41 66 57 78 53 11 -5 13 -9 5 -14 -6 -4 -12 -19 -13
-34 -1 -15 -9 -31 -17 -36 -8 -5 -12 -11 -9 -15 6 -6 59 39 59 51 0 3 -8 3
-17 0 -13 -5 -11 0 6 18 14 15 20 26 15 26 -5 0 13 14 40 31 26 17 45 33 42
36 -3 3 -27 -9 -54 -26 -51 -32 -68 -38 -57 -20 4 5 -10 3 -31 -6 -20 -8 -39
-13 -42 -10 -3 3 -1 5 4 5 6 0 36 16 68 35 32 19 65 35 72 35 8 0 13 4 11 9
-1 4 9 18 23 31 21 18 21 20 5 14 -11 -4 -31 -8 -45 -8 -14 0 -27 -3 -30 -6
-10 -12 -100 -58 -100 -52 0 15 107 75 120 67 5 -3 24 3 42 13 18 10 51 22 73
25 30 5 34 4 18 -3 -35 -14 -27 -20 13 -8 20 5 41 7 48 5 6 -3 27 9 46 25 l35
30 -30 -6 -30 -7 24 19 c13 11 33 17 47 14 16 -3 43 9 85 37 34 23 68 41 76
41 8 0 26 9 40 20 14 11 37 20 51 20 14 0 36 10 48 21 13 12 36 22 51 22 25
-1 57 23 65 49 2 5 16 11 32 12 16 2 35 11 41 20 7 9 22 16 33 16 28 0 37 17
18 35 -18 18 -38 19 -54 3 -7 -7 -20 -13 -30 -13 -9 0 -21 -10 -27 -22 -8 -19
-15 -21 -55 -16 -25 3 -42 2 -38 -2 9 -9 -28 -45 -47 -45 -26 0 -63 -22 -68
-41 -3 -10 -18 -24 -34 -30 -15 -6 -40 -17 -55 -25 -30 -16 -62 -19 -53 -4 3
6 -2 10 -12 11 -12 0 -9 5 12 14 l30 14 -27 1 c-35 0 -58 -9 -58 -25 0 -15
-23 -25 -53 -24 -12 0 -16 3 -9 6 10 4 9 8 -5 18 -16 12 -13 14 22 24 22 6 63
11 91 11 43 0 54 4 79 30 16 17 36 30 46 30 9 0 22 7 29 15 7 8 31 20 54 27
22 7 50 20 60 30 19 17 60 19 84 4 7 -4 12 -4 13 1 0 4 2 18 5 30 3 20 0 22
-44 22 -122 0 -118 -1 -97 16 25 18 13 19 -23 2 -35 -17 -201 -15 -212 3 -5 7
-15 10 -25 6 -16 -6 -16 -4 -4 10 13 16 12 16 -11 3 -14 -7 -36 -14 -50 -16
-22 -2 -23 0 -8 10 9 7 24 17 33 22 15 9 -101 11 -250 4 -22 -1 -51 1 -65 5
-18 4 -16 2 7 -9 32 -15 52 -35 34 -35 -5 0 -12 4 -16 9 -3 5 -19 12 -35 16
-17 4 -30 10 -30 15 0 10 -143 0 -150 -10 -3 -4 -20 -11 -38 -15 -18 -4 -45
-13 -60 -21 -34 -18 -66 -18 -81 0 -9 11 -8 15 4 20 9 3 14 10 11 15 -4 5 -2
11 4 13 5 1 12 18 16 36 6 30 5 32 -21 32 -43 0 -128 -33 -147 -56 -10 -12
-31 -24 -48 -26 -30 -5 -41 5 -17 16 6 3 -7 4 -30 1 -24 -3 -43 -1 -43 4 0 5
-8 12 -17 14 -12 3 -10 5 7 6 14 1 38 8 54 16 15 8 36 15 45 16 10 0 11 2 4 6
-7 2 -13 11 -13 19 0 13 -35 19 -82 15 -10 -1 -28 8 -40 20 -21 20 -21 21 -3
14 44 -16 58 -18 51 -7 -4 7 -1 12 8 12 8 0 18 -4 21 -10 8 -14 52 -13 61 2 5
8 0 9 -15 5 -15 -3 -29 1 -41 13 -10 10 -30 26 -44 35 -26 17 -34 35 -16 35 5
0 23 -13 40 -30 31 -31 50 -35 85 -20 l20 9 -20 1 c-13 1 -6 6 17 13 l38 12
-26 20 c-76 60 -99 84 -88 95 9 9 17 5 32 -14 11 -14 27 -26 36 -26 9 0 16 -6
16 -14 0 -8 4 -17 9 -20 23 -15 -4 34 -30 53 -15 12 -27 27 -25 34 1 6 1 8 -2
4 -2 -4 -10 -3 -18 4 -11 9 -14 8 -14 -2 0 -23 -37 26 -45 59 -3 18 -11 35
-17 38 -7 5 -8 2 -3 -7 8 -12 6 -12 -8 0 -26 21 -31 7 -10 -25 12 -19 13 -25
4 -20 -11 7 -13 4 -8 -13 4 -17 2 -21 -9 -17 -12 4 -12 2 -4 -14 6 -11 13 -20
16 -20 3 0 2 5 -1 10 -3 6 -2 10 2 10 5 0 14 -9 21 -21 8 -12 9 -18 3 -14 -14
8 -14 -8 -1 -21 6 -6 3 -10 -10 -10 -11 0 -19 5 -16 11 2 6 -5 11 -15 11 -13
0 -18 -5 -14 -14 4 -10 0 -13 -15 -9 -28 7 -25 -4 14 -54 19 -23 32 -47 29
-52 -2 -4 -17 10 -31 32 -39 61 -53 53 -26 -14 7 -18 6 -18 -9 -6 -23 18 -23
-5 0 -31 15 -17 15 -18 -2 -18 -16 0 -16 -1 0 -26 23 -36 12 -41 -15 -7 -12
15 -27 28 -33 28 -27 2 -58 28 -72 60 -7 19 -18 35 -24 35 -5 0 -7 9 -4 20 3
11 -2 32 -12 46 -9 15 -12 23 -6 20 6 -4 11 -2 11 3 0 6 -9 16 -20 23 -11 7
-20 18 -20 25 0 7 -7 13 -15 13 -8 0 -15 7 -15 15 0 8 -4 15 -10 15 -5 0 -10
-4 -10 -10 0 -5 -7 -10 -15 -10 -11 0 -10 5 6 21 19 19 19 22 4 42 -8 12 -18
30 -22 40 -5 16 -23 24 -23 10z m129 -287 c45 -76 80 -140 78 -142 -3 -4 -57
84 -158 261 -12 22 -18 36 -12 30 6 -5 47 -72 92 -149z m297 93 c1 -5 2 -13 3
-19 0 -5 9 -10 19 -10 19 -1 83 -49 67 -51 -52 -5 -70 -3 -67 10 2 7 -6 23
-16 35 -11 11 -19 29 -19 39 0 17 11 14 13 -4z m846 -91 c-5 -5 -3 -27 6 -55
16 -47 9 -92 -15 -100 -10 -4 -10 3 -2 27 11 29 9 60 -5 122 -5 22 -3 26 10
21 9 -3 12 -9 6 -15z m451 -123 c-3 -8 -15 -15 -27 -14 -20 0 -20 1 2 10 14 5
20 13 16 20 -4 8 -3 9 4 5 6 -4 9 -13 5 -21z m-1373 -20 c7 -8 8 -15 2 -15 -5
0 -15 7 -22 15 -7 8 -8 15 -2 15 5 0 15 -7 22 -15z m820 -85 c0 -5 -9 -10 -21
-10 -11 0 -17 5 -14 10 3 6 13 10 21 10 8 0 14 -4 14 -10z m104 -21 c-9 -10
-21 -16 -27 -14 -7 2 -24 6 -39 9 -48 11 -30 26 27 25 53 -2 55 -3 39 -20z
m-826 -12 c3 -13 -3 -17 -30 -16 l-33 1 30 10 c27 10 28 12 10 19 -20 9 -20 9
0 6 11 -1 21 -10 23 -20z m595 6 c-13 -3 -23 -8 -23 -13 0 -5 6 -7 13 -4 7 2
24 0 38 -5 17 -8 -1 -9 -66 -4 -90 6 -126 13 -66 13 18 0 30 3 28 8 -3 4 18 7
46 8 29 1 42 -1 30 -3z m127 -3 c11 -7 6 -10 -20 -10 -26 0 -31 3 -20 10 8 5
17 10 20 10 3 0 12 -5 20 -10z m233 -12 c3 -8 -4 -14 -18 -14 -12 -1 -22 4
-22 12 0 17 33 19 40 2z m-635 -17 c10 -6 5 -11 -19 -20 -17 -6 -39 -11 -48
-10 -9 0 -3 5 13 11 21 8 25 13 15 19 -11 7 -9 9 6 9 11 0 26 -4 33 -9z m180
-8 c-10 -2 -26 -2 -35 0 -10 3 -2 5 17 5 19 0 27 -2 18 -5z m396 -7 c-7 -20
34 -42 49 -27 6 6 19 11 28 11 22 0 37 -22 20 -28 -7 -2 -16 -15 -21 -28 -7
-17 -18 -24 -37 -25 l-28 -1 28 -10 c15 -5 27 -13 27 -18 0 -8 -35 -20 -63
-20 -14 0 -16 4 -7 19 13 25 -13 35 -67 26 -28 -5 -34 -4 -23 4 8 6 25 11 37
11 12 0 29 7 37 16 9 9 24 13 35 9 11 -3 22 -1 25 4 4 5 -3 12 -14 16 -11 3
-27 13 -35 21 -11 12 -19 12 -35 4 -11 -6 -20 -8 -20 -5 0 5 54 32 67 35 1 0
0 -6 -3 -14z m-945 -5 c11 -7 10 -11 -7 -20 -28 -15 -31 -14 -29 9 1 21 14 25
36 11z m761 -7 c0 -2 -7 -4 -15 -4 -8 0 -15 4 -15 10 0 5 7 7 15 4 8 -4 15 -8
15 -10z m-35 -23 c-6 -5 -25 -12 -42 -16 -26 -5 -33 -3 -33 9 0 12 10 16 42
16 25 0 38 -4 33 -9z m183 -18 c-10 -2 -28 -2 -40 0 -13 2 -5 4 17 4 22 1 32
-1 23 -4z m-927 -78 c18 -33 28 -55 22 -50 -6 6 -26 37 -44 70 -18 33 -28 56
-22 50 6 -5 26 -37 44 -70z m674 55 c-3 -5 -28 -10 -56 -10 -27 0 -49 5 -49
10 0 6 25 10 56 10 34 0 53 -4 49 -10z m-95 -20 c12 -8 11 -10 -7 -10 -13 0
-23 -4 -23 -10 0 -5 -19 -10 -42 -11 -33 0 -38 -2 -23 -9 14 -6 4 -8 -35 -8
-31 1 -42 3 -25 5 16 3 41 13 55 23 23 16 49 26 75 29 6 0 17 -4 25 -9z m282
-23 c14 -11 11 -13 -24 -14 -34 -2 -38 0 -28 12 15 18 30 18 52 2z m88 9 c0
-3 -4 -8 -10 -11 -5 -3 -10 -1 -10 4 0 6 5 11 10 11 6 0 10 -2 10 -4z m360 -6
c0 -5 -7 -10 -16 -10 -8 0 -12 5 -9 10 3 6 10 10 16 10 5 0 9 -4 9 -10z m-400
-30 c0 -5 -8 -10 -17 -10 -15 0 -16 2 -3 10 19 12 20 12 20 0z m-599 -39 c-27
-17 165 -35 224 -21 56 15 106 19 100 9 -4 -5 -16 -9 -29 -9 -12 0 -26 -4 -31
-9 -13 -13 -147 -81 -159 -81 -5 0 -1 6 10 14 17 13 15 14 -26 10 -35 -4 -42
-3 -30 6 13 9 12 10 -5 6 -11 -3 -42 -10 -70 -17 -27 -6 -54 -16 -59 -20 -5
-5 6 -4 25 1 46 13 110 13 89 0 -13 -9 -13 -10 0 -10 8 0 -1 -8 -20 -18 -19
-9 -34 -21 -33 -27 2 -5 -12 -15 -30 -22 -43 -16 -56 -15 -34 1 26 20 5 29
-40 17 -47 -13 -54 -7 -15 13 35 18 53 39 25 29 -15 -5 -16 -3 -5 8 18 19 15
26 -15 34 -24 7 -15 10 54 24 72 14 117 30 81 28 -7 0 -33 1 -58 2 -35 2 -41
4 -25 11 17 8 16 9 -10 11 -24 2 -22 3 15 9 70 11 87 11 71 1z m-236 -76 c16
-27 24 -45 18 -40 -6 6 -23 33 -38 60 -16 28 -24 46 -18 40 6 -5 23 -32 38
-60z m810 55 c-3 -5 -18 -10 -33 -9 -24 0 -25 1 -7 9 28 12 47 12 40 0z m93
-47 c-11 -14 -37 -17 -62 -7 -30 12 -16 22 28 21 34 -2 42 -5 34 -14z m-168
-18 c-14 -8 -32 -14 -40 -14 -9 0 -4 6 10 14 14 8 32 14 40 14 9 0 4 -6 -10
-14z m-664 -106 c20 -33 39 -57 43 -51 3 5 24 15 46 22 51 17 97 45 88 54 -4
4 1 4 10 0 24 -9 13 -19 -60 -55 -53 -27 -55 -29 -22 -24 42 6 56 -3 31 -21
-16 -12 -16 -13 3 -14 15 -1 12 -5 -15 -19 -19 -11 -38 -17 -42 -15 -4 3 -5
-2 -2 -10 3 -9 11 -13 17 -9 5 3 7 1 3 -5 -3 -6 10 -41 31 -79 57 -105 30 -69
-50 68 -40 68 -85 145 -101 172 -15 26 -26 47 -23 47 3 0 22 -27 43 -61z m596
0 c-18 -12 -35 -19 -38 -16 -3 3 7 12 23 21 42 23 53 19 15 -5z m589 -45 c-23
-44 -26 -37 -10 20 7 26 14 35 21 28 6 -6 3 -22 -11 -48z m62 -84 c4 -28 4
-39 -2 -30 -5 8 -11 40 -15 70 -6 63 7 32 17 -40z m-213 36 c-28 -76 -112
-226 -122 -220 -6 4 -8 3 -4 -4 3 -6 -16 -53 -43 -104 -87 -162 -163 -392
-183 -548 -6 -55 -16 -100 -20 -100 -24 0 37 302 87 429 14 36 23 66 20 69 -2
2 -18 -17 -34 -44 -17 -26 -31 -41 -31 -33 0 7 -15 -11 -32 -41 -18 -30 -39
-62 -46 -70 -13 -12 -14 -11 -7 10 4 14 13 32 20 40 8 8 17 27 20 42 4 16 11
25 16 22 5 -3 9 0 9 6 0 7 5 10 12 8 7 -3 19 9 28 26 9 17 32 58 51 91 52 90
55 106 11 60 -22 -22 -49 -49 -62 -60 l-23 -20 12 23 c7 12 37 48 67 79 29 31
54 60 54 65 0 5 4 7 9 4 11 -7 117 147 160 232 31 62 49 83 31 38z m120 -146
c4 -25 5 -51 0 -59 -7 -14 -14 32 -25 164 l-4 50 10 -55 c5 -30 14 -75 19
-100z m-380 130 c0 -5 -5 -10 -11 -10 -5 0 -7 5 -4 10 3 6 8 10 11 10 2 0 4
-4 4 -10z m61 -8 c-5 -10 -18 -25 -28 -33 -12 -10 -11 -5 6 19 24 35 38 43 22
14z m-449 -22 c-33 -31 -52 -38 -52 -20 0 8 66 49 80 49 3 0 -10 -13 -28 -29z
m8 -65 c-15 -16 -33 -23 -57 -23 -39 0 -35 7 21 37 47 24 66 17 36 -14z m873
-140 c2 -55 1 -84 -3 -65 -4 19 -10 80 -13 135 -3 58 -2 85 3 65 4 -19 10 -80
13 -135z m27 129 c0 -20 18 -17 23 4 3 9 5 4 6 -13 2 -49 12 -79 22 -63 6 9 8
7 7 -7 -1 -11 1 -33 5 -50 l6 -30 -12 26 c-7 14 -17 32 -23 40 -6 8 -15 25
-19 39 -4 14 -16 36 -26 49 -23 28 -25 48 -4 31 8 -7 15 -19 15 -26z m-716
-43 c-10 -17 -22 -31 -26 -31 -4 0 -7 -3 -7 -7 3 -20 -2 -27 -10 -14 -6 9 -5
19 2 26 7 6 21 24 32 38 26 35 32 26 9 -12z m-294 -1 c0 -5 -5 -10 -11 -10 -5
0 -7 5 -4 10 3 6 8 10 11 10 2 0 4 -4 4 -10z m761 -111 c-6 -63 -19 -148 -30
-189 -25 -98 -26 -60 -2 61 11 52 22 129 26 172 4 43 9 76 11 74 3 -3 0 -56
-5 -118z m-1984 69 c-3 -8 -6 -5 -6 6 -1 11 2 17 5 13 3 -3 4 -12 1 -19z
m1794 -25 c-12 -20 -14 -14 -5 12 4 9 9 14 11 11 3 -2 0 -13 -6 -23z m339 -14
c0 -6 -4 -7 -10 -4 -5 3 -10 11 -10 16 0 6 5 7 10 4 6 -3 10 -11 10 -16z
m-499 -12 c-10 -9 -11 -8 -5 6 3 10 9 15 12 12 3 -3 0 -11 -7 -18z m473 7 c3
-8 2 -12 -4 -9 -6 3 -10 10 -10 16 0 14 7 11 14 -7z m-589 -54 c-10 -11 -20
-18 -23 -15 -7 6 18 35 31 35 5 0 2 -9 -8 -20z m-1428 -52 c-3 -7 -5 -2 -5 12
0 14 2 19 5 13 2 -7 2 -19 0 -25z m-20 -30 c-3 -8 -6 -5 -6 6 -1 11 2 17 5 13
3 -3 4 -12 1 -19z m1179 -40 c0 -10 -1 -18 -3 -18 -1 0 -7 8 -12 18 -7 13 -6
19 2 19 7 0 13 -9 13 -19z m-1190 -24 c4 -14 2 -40 -5 -57 l-11 -32 6 37 c3
21 0 47 -6 58 -7 13 -7 20 -1 20 6 0 14 -12 17 -26z m1253 0 c-6 -8 -18 -14
-25 -14 -17 0 -17 -5 -4 -31 6 -10 8 -19 6 -19 -3 0 -12 13 -20 29 -13 24 -13
31 -2 40 7 6 16 8 19 4 4 -3 7 -1 7 5 0 6 7 9 15 6 12 -5 13 -10 4 -20z
m-1309 -25 c0 -5 -4 -7 -10 -4 -5 3 -10 2 -10 -4 0 -5 6 -12 13 -14 9 -4 9 -6
0 -6 -15 -1 -26 16 -18 29 8 13 25 13 25 -1z m86 -64 c-4 -17 -11 -22 -22 -18
-14 5 -15 3 -4 -17 10 -19 9 -25 -5 -39 -16 -15 -17 -14 -12 10 4 16 0 34 -10
50 -15 21 -15 22 -1 11 11 -9 18 -10 23 -2 3 6 11 8 16 5 5 -4 10 9 10 27 1
18 3 25 6 15 3 -10 2 -29 -1 -42z m-102 14 c-8 -14 -24 -10 -24 6 0 9 6 12 15
9 8 -4 12 -10 9 -15z m20 -12 c-3 -8 0 -27 6 -43 9 -27 9 -28 -5 -10 -16 21
-20 48 -8 59 10 11 13 8 7 -6z m-104 -20 c27 -22 23 -38 -7 -31 -16 4 -32 11
-38 16 -7 7 -1 8 15 3 22 -7 23 -6 11 9 -16 19 -3 21 19 3z m2 -68 c33 -24 31
-37 -4 -18 -12 7 -36 12 -53 11 l-30 -2 25 15 c32 18 27 19 62 -6z m2035 -21
c-3 -8 -6 -5 -6 6 -1 11 2 17 5 13 3 -3 4 -12 1 -19z m-1793 -13 c-4 -8 -10
-15 -15 -15 -4 0 -6 7 -3 15 4 8 10 15 15 15 4 0 6 -7 3 -15z m1250 -39 c7 3
12 -4 12 -15 0 -11 -4 -19 -8 -18 -5 1 -23 -25 -41 -58 -47 -86 -55 -93 -63
-50 -3 19 -10 32 -15 29 -5 -3 -7 -9 -5 -12 2 -4 -4 -19 -15 -32 l-19 -25 16
40 c23 57 49 72 57 33 4 -21 4 -20 6 3 1 31 53 128 59 111 2 -6 9 -9 16 -6z
m93 -118 c-3 -7 -5 -2 -5 12 0 14 2 19 5 13 2 -7 2 -19 0 -25z m-1454 -123
c-3 -9 -8 -14 -10 -11 -3 3 -2 9 2 15 9 16 15 13 8 -4z m24 -41 c-7 -41 -47
-90 -47 -57 0 32 12 63 22 57 5 -3 12 3 15 15 9 35 16 24 10 -15z m80 3 c-16
-24 -6 -63 14 -52 5 4 9 4 9 1 0 -8 -64 -65 -68 -61 -8 8 21 108 36 126 22 25
28 15 9 -14z m-150 -34 c-3 -10 -5 -2 -5 17 0 19 2 27 5 18 2 -10 2 -26 0 -35z
m20 15 c-3 -7 -5 -2 -5 12 0 14 2 19 5 13 2 -7 2 -19 0 -25z m83 -24 c0 -16
-7 -39 -16 -50 -14 -18 -15 -18 -8 6 6 24 6 24 -10 5 -19 -25 -20 -9 -1 25 8
14 15 36 15 50 1 37 20 4 20 -36z m-123 4 c-3 -7 -5 -2 -5 12 0 14 2 19 5 13
2 -7 2 -19 0 -25z m1370 10 c-3 -8 -6 -5 -6 6 -1 11 2 17 5 13 3 -3 4 -12 1
-19z m-1506 -31 c-10 -9 -11 -8 -5 6 3 10 9 15 12 12 3 -3 0 -11 -7 -18z
m1496 -29 c-3 -8 -6 -5 -6 6 -1 11 2 17 5 13 3 -3 4 -12 1 -19z m-1319 -74 c8
5 6 -133 -2 -142 -3 -3 -6 4 -6 16 0 11 -4 24 -10 27 -13 8 -13 -38 -1 -51 6
-5 12 -34 16 -64 4 -38 2 -49 -4 -35 l-10 20 -2 -20 c-1 -11 -2 -26 -2 -34 1
-8 -2 -10 -8 -4 -6 6 -5 29 2 62 10 46 9 55 -7 72 -20 22 -35 187 -16 175 6
-4 9 -30 7 -64 l-4 -57 11 69 c9 54 13 64 20 47 4 -12 11 -20 16 -17z m1309 4
c-3 -7 -5 -2 -5 12 0 14 2 19 5 13 2 -7 2 -19 0 -25z m298 -32 c3 -30 1 -45
-5 -41 -6 3 -10 27 -10 52 0 58 10 51 15 -11z m-1566 3 c1 8 3 12 6 9 8 -8
-16 -68 -27 -68 -5 0 -7 16 -4 38 3 20 6 42 7 47 0 6 5 -1 9 -15 4 -14 8 -19
9 -11z m1439 -45 c12 4 24 0 33 -10 13 -16 12 -16 -8 -5 -18 9 -23 9 -23 -1 0
-6 10 -23 23 -37 12 -14 14 -19 5 -12 -25 19 -22 0 5 -40 39 -59 42 -65 16
-44 -65 53 -68 57 -59 76 7 12 6 20 -2 25 -7 5 -8 3 -3 -6 6 -9 4 -11 -4 -6
-7 5 -10 13 -8 20 3 7 -4 13 -15 13 -24 2 -68 30 -68 43 0 14 18 21 25 10 3
-5 11 -10 18 -10 8 0 8 3 -1 12 -7 7 -12 17 -12 23 1 5 14 -5 29 -23 21 -25
34 -32 49 -28z m172 41 c7 -8 17 -15 22 -15 15 0 140 -61 135 -66 -2 -2 -27 0
-54 6 -49 11 -133 62 -133 81 0 14 16 11 30 -6z m-104 -36 c10 -12 33 -28 49
-35 17 -7 23 -13 14 -14 -15 0 -99 55 -99 65 0 12 18 3 36 -16z m-1616 -66 l0
-28 -15 29 c-8 15 -15 35 -15 43 0 12 2 12 15 -1 8 -8 15 -27 15 -43z m1257
-33 c1 -11 -2 -18 -8 -15 -11 7 -12 35 -1 35 4 0 8 -9 9 -20z m595 -18 c23
-18 36 -32 29 -32 -22 0 -76 27 -94 47 -16 19 -16 20 3 18 12 -1 39 -16 62
-33z m-476 -19 c-11 -11 -17 4 -9 23 7 18 8 18 11 1 2 -10 1 -21 -2 -24z
m-1225 -20 c-8 -15 -10 -15 -11 -2 0 17 10 32 18 25 2 -3 -1 -13 -7 -23z
m1319 -3 c0 -17 -15 -11 -28 11 -12 19 -11 19 8 9 11 -6 20 -15 20 -20z m-90
0 c0 -5 -2 -10 -4 -10 -3 0 -8 5 -11 10 -3 6 -1 10 4 10 6 0 11 -4 11 -10z
m544 -51 c15 -12 25 -23 22 -26 -8 -8 -75 20 -80 34 -8 21 28 16 58 -8z m-222
-3 c3 3 8 -2 11 -11 6 -14 4 -14 -23 0 -17 9 -30 18 -30 21 0 2 8 0 19 -5 10
-6 21 -8 23 -5z m-1640 -56 c-7 -19 -10 -21 -15 -7 -4 10 -2 17 3 17 6 0 10 8
11 18 0 9 3 12 5 6 3 -6 1 -21 -4 -34z m1568 -61 c39 -34 16 -22 -50 29 -26
19 -44 42 -45 54 -2 18 3 16 29 -15 17 -20 47 -51 66 -68z m86 67 c16 -8 40
-17 53 -21 20 -6 23 -4 18 9 -10 24 1 20 59 -25 47 -36 84 -78 84 -94 0 -3
-24 14 -54 38 -33 27 -73 49 -102 56 -26 7 -58 21 -72 32 -29 23 -26 24 14 5z
m-1607 -37 c-16 -45 -33 -63 -23 -24 8 36 24 68 30 62 2 -2 -1 -19 -7 -38z
m1570 4 c25 -50 90 -124 104 -121 7 1 23 -4 35 -11 43 -23 34 -3 -15 34 -49
37 -72 65 -54 65 5 0 22 -10 38 -23 15 -13 52 -38 81 -56 28 -18 52 -35 52
-36 0 -2 -68 -4 -152 -4 -148 -1 -152 -1 -192 25 -36 24 -38 28 -21 34 11 4
28 4 37 -1 22 -12 21 -12 48 11 13 11 30 20 38 20 11 0 5 12 -19 36 -27 29
-29 34 -11 24 22 -11 23 -10 13 9 -12 21 -14 31 -6 31 2 0 13 -17 24 -37z
m-709 -74 c0 -6 -4 -7 -10 -4 -5 3 -10 11 -10 16 0 6 5 7 10 4 6 -3 10 -11 10
-16z m-836 -15 c3 -8 2 -12 -4 -9 -6 4 -10 -6 -10 -22 0 -22 -5 -29 -20 -29
-11 0 -20 4 -20 8 0 4 5 8 11 8 5 0 15 14 20 30 12 34 15 36 23 14z m1151 -54
c3 -6 -1 -10 -9 -10 -8 0 -20 9 -26 21 -11 19 -10 20 9 10 11 -6 23 -16 26
-21z m192 -8 c-19 -4 -47 14 -47 29 0 5 15 2 33 -8 25 -13 28 -18 14 -21z
m-1647 8 c0 -5 -4 -10 -10 -10 -5 0 -10 5 -10 10 0 6 5 10 10 10 6 0 10 -4 10
-10z m1255 0 c3 -5 2 -10 -4 -10 -5 0 -13 5 -16 10 -3 6 -2 10 4 10 5 0 13 -4
16 -10z"/>
<path d="M1356 2462 c-2 -4 4 -8 14 -8 10 0 16 4 14 8 -3 4 -9 8 -14 8 -5 0
-11 -4 -14 -8z"/>
<path d="M1498 1863 c7 -3 16 -2 19 1 4 3 -2 6 -13 5 -11 0 -14 -3 -6 -6z"/>
<path d="M2285 1390 c-9 -16 -13 -30 -11 -30 3 0 12 14 21 30 9 17 13 30 11
30 -3 0 -12 -13 -21 -30z"/>
<path d="M1785 1560 c-16 -11 -25 -20 -20 -20 10 0 64 39 55 40 -3 0 -18 -9
-35 -20z"/>
<path d="M466 474 c-4 -9 -4 -19 -1 -22 2 -3 7 3 11 12 4 9 4 19 1 22 -2 3 -7
-3 -11 -12z"/>
<path d="M1067 2693 c-22 -34 -23 -39 -8 -50 18 -14 32 -16 30 -5 -1 4 0 12 1
17 3 14 5 75 3 75 -2 0 -13 -17 -26 -37z"/>
<path d="M1297 2723 c-12 -12 -7 -40 9 -54 15 -12 16 -11 9 11 -5 14 -8 31 -8
38 0 14 -1 14 -10 5z"/>
<path d="M715 2710 c-12 -20 57 -27 73 -7 8 9 1 12 -29 14 -21 0 -41 -3 -44
-7z"/>
<path d="M828 2713 c7 -3 16 -2 19 1 4 3 -2 6 -13 5 -11 0 -14 -3 -6 -6z"/>
<path d="M302 2680 c0 -19 2 -27 5 -17 2 9 2 25 0 35 -3 9 -5 1 -5 -18z"/>
<path d="M2445 2680 c3 -5 8 -10 11 -10 2 0 4 5 4 10 0 6 -5 10 -11 10 -5 0
-7 -4 -4 -10z"/>
<path d="M608 2643 c7 -3 16 -2 19 1 4 3 -2 6 -13 5 -11 0 -14 -3 -6 -6z"/>
<path d="M1003 2630 c-8 -12 -9 -21 -3 -25 6 -3 10 1 10 11 0 14 2 15 17 3 15
-13 15 -12 4 9 -14 27 -13 27 -28 2z"/>
<path d="M311 2624 c0 -11 3 -14 6 -6 3 7 2 16 -1 19 -3 4 -6 -2 -5 -13z"/>
<path d="M590 2620 c-18 -12 -2 -12 25 0 13 6 15 9 5 9 -8 0 -22 -4 -30 -9z"/>
<path d="M1190 2606 c0 -2 7 -9 15 -16 9 -7 15 -8 15 -2 0 5 -7 12 -15 16 -8
3 -15 4 -15 2z"/>
<path d="M320 2578 c0 -9 5 -20 10 -23 13 -8 13 5 0 25 -8 13 -10 13 -10 -2z"/>
<path d="M1465 2530 c11 -5 31 -8 45 -8 l25 0 -25 8 c-14 4 -34 8 -45 8 l-20
1 20 -9z"/>
<path d="M1472 2501 c-10 -6 -7 -12 12 -25 14 -9 26 -12 26 -7 0 6 -8 15 -17
21 -17 11 -17 11 -1 6 10 -3 20 -1 23 4 8 12 -25 13 -43 1z"/>
<path d="M1890 2500 c0 -6 11 -8 28 -4 39 10 40 14 4 14 -18 0 -32 -5 -32 -10z"/>
<path d="M1585 2450 c-3 -5 -2 -10 4 -10 5 0 13 5 16 10 3 6 2 10 -4 10 -5 0
-13 -4 -16 -10z"/>
<path d="M1890 2451 c0 -5 5 -13 10 -16 6 -3 10 -2 10 4 0 5 -4 13 -10 16 -5
3 -10 2 -10 -4z"/>
<path d="M1958 2411 l-27 -6 34 -40 34 -40 1 42 c0 47 -4 52 -42 44z"/>
<path d="M1580 2400 c-8 -5 -10 -10 -5 -10 6 0 17 5 25 10 8 5 11 10 5 10 -5
0 -17 -5 -25 -10z"/>
<path d="M1150 2391 c0 -5 5 -13 10 -16 6 -3 10 -2 10 4 0 5 -4 13 -10 16 -5
3 -10 2 -10 -4z"/>
<path d="M1428 2373 c7 -3 16 -2 19 1 4 3 -2 6 -13 5 -11 0 -14 -3 -6 -6z"/>
<path d="M1770 2345 c0 -7 61 -37 66 -33 2 3 -12 12 -31 21 -19 9 -35 15 -35
12z"/>
<path d="M3080 2331 c-12 -23 -13 -71 -2 -71 9 0 42 64 42 80 0 18 -29 11 -40
-9z"/>
<path d="M2631 2208 c0 -10 -9 -18 -18 -18 -15 0 -16 -2 -3 -10 19 -12 33 2
27 26 -4 17 -5 17 -6 2z"/>
<path d="M2880 2031 c0 -5 7 -11 15 -15 9 -3 15 0 15 9 0 8 -7 15 -15 15 -8 0
-15 -4 -15 -9z"/>
<path d="M2728 2006 c-24 -18 -23 -33 3 -41 14 -5 25 -1 34 12 19 24 18 34 -2
26 -11 -4 -14 -3 -9 5 10 16 -5 15 -26 -2z"/>
<path d="M2811 2011 c-12 -8 -12 -12 3 -26 16 -16 18 -16 36 0 11 10 20 22 20
27 0 11 -41 10 -59 -1z"/>
<path d="M2850 1930 c0 -11 4 -20 8 -20 4 0 8 9 9 20 1 11 -2 20 -8 20 -5 0
-9 -9 -9 -20z"/>
<path d="M2757 1923 c-4 -3 -7 -13 -7 -22 1 -13 3 -13 11 2 11 19 8 33 -4 20z"/>
<path d="M2775 1902 c-3 -3 2 -14 11 -24 13 -14 20 -15 31 -7 7 6 13 15 13 19
0 9 -47 19 -55 12z"/>
<path d="M2734 1846 c-3 -8 -4 -23 -1 -33 3 -12 5 -9 6 9 0 14 7 29 14 31 9 4
9 6 -1 6 -7 1 -15 -5 -18 -13z"/>
<path d="M811 1772 c-7 -26 -13 -60 -13 -77 0 -18 -2 -23 -5 -11 -4 15 -7 16
-14 5 -7 -11 -9 -10 -9 5 0 16 -2 17 -16 5 -12 -10 -14 -23 -10 -54 5 -28 3
-36 -4 -25 -5 8 -10 11 -11 5 -2 -27 -7 -52 -13 -70 -5 -15 -4 -14 5 3 19 36
24 26 24 -47 0 -38 -4 -67 -9 -64 -4 3 -5 -10 -1 -28 9 -37 9 -37 -1 -88 -5
-26 -4 -32 7 -29 8 3 13 16 11 30 -1 14 4 38 12 53 14 27 15 26 9 -31 -3 -32
-2 -56 2 -52 4 4 9 40 11 80 3 51 1 69 -6 58 -6 -10 -10 -11 -10 -3 0 18 32
53 42 47 4 -3 5 -16 2 -30 -4 -14 -2 -24 5 -24 7 0 11 20 11 50 0 31 -4 50
-12 50 -6 0 -4 7 5 18 10 10 17 23 17 29 0 6 7 24 15 39 9 17 11 30 5 32 -13
5 -13 42 0 42 6 0 10 5 10 11 0 5 -4 8 -9 4 -13 -7 -34 60 -26 84 3 11 2 22
-3 25 -5 3 -14 -16 -21 -42z m-14 -244 c-3 -8 -6 -5 -6 6 -1 11 2 17 5 13 3
-3 4 -12 1 -19z"/>
<path d="M610 1799 c0 -5 5 -7 10 -4 6 3 10 8 10 11 0 2 -4 4 -10 4 -5 0 -10
-5 -10 -11z"/>
<path d="M576 1782 c-2 -4 -1 -14 3 -21 6 -10 10 -9 14 3 6 16 -8 32 -17 18z"/>
<path d="M681 1738 c-1 -14 -6 -28 -11 -30 -7 -2 -5 -16 5 -38 l16 -35 -5 37
c-2 20 0 38 5 40 7 2 7 12 0 28 l-10 25 0 -27z"/>
<path d="M3184 1749 c-3 -6 -1 -16 5 -22 9 -9 10 -7 5 7 -6 15 -4 17 6 11 9
-5 11 -4 6 3 -9 15 -13 15 -22 1z"/>
<path d="M2126 1735 c-11 -8 -15 -15 -10 -15 6 0 19 7 30 15 10 8 15 14 9 14
-5 0 -19 -6 -29 -14z"/>
<path d="M620 1709 c0 -5 5 -7 10 -4 6 3 10 8 10 11 0 2 -4 4 -10 4 -5 0 -10
-5 -10 -11z"/>
<path d="M717 1701 c-4 -17 -3 -21 5 -13 5 5 8 16 6 23 -3 8 -7 3 -11 -10z"/>
<path d="M2010 1690 c-9 -6 -10 -10 -3 -10 6 0 15 5 18 10 8 12 4 12 -15 0z"/>
<path d="M2067 1655 c-11 -16 -13 -23 -5 -20 15 6 42 45 31 45 -5 0 -16 -12
-26 -25z"/>
<path d="M640 1662 c0 -5 7 -9 15 -9 8 0 15 4 15 9 0 4 -7 8 -15 8 -8 0 -15
-4 -15 -8z"/>
<path d="M710 1645 c-6 -15 -13 -32 -16 -36 -3 -5 -1 -9 4 -9 11 0 35 60 27
68 -2 3 -9 -8 -15 -23z"/>
<path d="M875 1620 c3 -5 1 -10 -5 -10 -6 0 -8 -4 -5 -10 3 -5 2 -18 -3 -27
-5 -10 -12 -36 -16 -58 l-6 -40 16 28 c8 16 13 31 10 34 -3 3 -2 13 3 22 16
31 22 71 11 71 -6 0 -8 -4 -5 -10z"/>
<path d="M2033 1623 c4 -3 1 -13 -6 -22 -11 -14 -10 -14 5 -2 16 12 16 31 1
31 -4 0 -3 -3 0 -7z"/>
<path d="M431 1584 c0 -11 3 -14 6 -6 3 7 2 16 -1 19 -3 4 -6 -2 -5 -13z"/>
<path d="M1879 1573 c-13 -16 -12 -17 4 -4 9 7 17 15 17 17 0 8 -8 3 -21 -13z"/>
<path d="M1106 1531 c-9 -16 -16 -36 -16 -43 0 -7 -8 -29 -19 -48 -10 -19 -22
-46 -26 -60 -4 -14 -22 -56 -40 -95 -18 -38 -35 -79 -37 -90 -2 -11 -9 -19
-15 -18 -6 1 -21 -10 -34 -25 -15 -17 -17 -21 -5 -12 16 12 20 12 24 2 3 -10
11 -7 29 10 24 21 25 21 15 2 -6 -11 -18 -26 -26 -33 -9 -8 -13 -18 -9 -24 3
-6 -7 -21 -23 -34 -18 -14 -23 -23 -14 -23 8 0 25 15 38 33 16 23 22 27 22 14
0 -10 -12 -29 -26 -44 -14 -14 -23 -28 -20 -30 3 -3 15 5 27 18 15 18 19 20
15 6 -3 -11 -2 -16 4 -12 6 3 10 2 10 -3 0 -6 -18 -17 -40 -26 -22 -9 -40 -18
-40 -21 0 -2 21 4 48 14 26 10 52 16 59 14 6 -2 14 1 18 7 4 7 0 10 -10 8 -11
-2 -21 6 -26 20 -8 21 0 27 31 24 3 0 6 12 5 28 0 27 -1 28 -17 13 -22 -20
-23 -5 -3 24 8 12 12 29 9 37 -7 19 21 67 38 63 7 -1 12 3 13 8 0 6 5 17 10
25 5 8 10 20 12 25 1 6 5 21 9 35 7 25 7 25 -14 7 l-20 -19 20 42 c12 23 22
65 23 93 1 29 7 65 14 81 16 39 6 45 -13 7z m-27 -254 c-2 -1 -15 -11 -29 -22
l-25 -20 19 23 c11 12 24 22 29 22 6 0 8 -1 6 -3z"/>
<path d="M892 1530 c-24 -23 -27 -37 -12 -60 8 -12 10 -10 10 10 0 14 7 36 16
48 19 27 14 28 -14 2z"/>
<path d="M1834 1519 c-23 -24 -25 -29 -9 -23 19 7 19 7 -1 -17 -12 -13 -24
-31 -28 -39 -4 -8 6 0 23 19 17 19 28 38 25 43 -3 5 2 15 12 23 11 7 16 16 13
19 -3 3 -19 -8 -35 -25z"/>
<path d="M421 1533 c0 -7 -6 -12 -12 -10 -6 1 -13 -9 -15 -22 -6 -32 -11 -36
-28 -22 -24 20 -31 -8 -8 -32 11 -12 22 -30 24 -40 1 -10 7 -17 13 -15 5 2 9
9 7 15 -2 8 3 10 13 7 18 -7 18 -8 5 35 -6 24 -6 39 1 47 6 7 9 21 6 31 -3 10
-5 12 -6 6z"/>
<path d="M2837 1512 c-8 -37 6 -80 15 -46 2 11 1 33 -2 49 l-6 30 -7 -33z"/>
<path d="M326 1426 c3 -7 -2 -16 -10 -19 -16 -7 -19 -57 -3 -57 5 0 5 9 2 21
-6 19 -5 20 15 9 20 -11 21 -10 15 9 -5 16 -2 21 12 21 17 1 17 2 -1 15 -25
19 -37 19 -30 1z"/>
<path d="M875 1399 c-4 -6 -5 -12 -2 -15 2 -3 7 2 10 11 7 17 1 20 -8 4z"/>
<path d="M426 1372 c-3 -5 1 -9 9 -9 8 0 12 4 9 9 -3 4 -7 8 -9 8 -2 0 -6 -4
-9 -8z"/>
<path d="M806 1363 c-6 -14 -5 -15 5 -6 7 7 10 15 7 18 -3 3 -9 -2 -12 -12z"/>
<path d="M590 1356 c0 -8 4 -17 9 -20 5 -4 7 3 4 14 -6 23 -13 26 -13 6z"/>
<path d="M711 1354 c0 -11 3 -14 6 -6 3 7 2 16 -1 19 -3 4 -6 -2 -5 -13z"/>
<path d="M1708 1327 c-18 -15 -24 -27 -19 -35 6 -11 14 -6 31 18 28 39 23 45
-12 17z"/>
<path d="M615 1283 c-3 -27 -7 -58 -9 -70 -2 -13 1 -23 5 -23 5 0 9 6 9 13 1
6 3 38 7 70 7 69 -3 77 -12 10z"/>
<path d="M805 1319 c-4 -6 -5 -12 -2 -15 2 -3 7 2 10 11 7 17 1 20 -8 4z"/>
<path d="M2989 1303 c5 -10 17 -27 26 -38 15 -18 16 -18 11 -2 -3 10 -6 23 -6
27 0 5 -9 14 -21 20 -18 10 -19 9 -10 -7z"/>
<path d="M710 1281 c0 -6 5 -13 10 -16 6 -3 10 1 10 9 0 9 -4 16 -10 16 -5 0
-10 -4 -10 -9z"/>
<path d="M757 1283 c-4 -3 -7 -13 -7 -20 0 -8 -7 -21 -15 -29 -16 -17 -21 -39
-6 -30 11 7 44 76 39 82 -3 2 -8 1 -11 -3z"/>
<path d="M1925 1270 c-3 -5 -1 -10 4 -10 6 0 11 5 11 10 0 6 -2 10 -4 10 -3 0
-8 -4 -11 -10z"/>
<path d="M300 1250 c-13 -8 -12 -10 3 -10 9 0 17 5 17 10 0 12 -1 12 -20 0z"/>
<path d="M690 1250 c0 -5 5 -10 11 -10 5 0 7 5 4 10 -3 6 -8 10 -11 10 -2 0
-4 -4 -4 -10z"/>
<path d="M791 1234 c0 -11 3 -14 6 -6 3 7 2 16 -1 19 -3 4 -6 -2 -5 -13z"/>
<path d="M2005 1229 c-10 -30 0 -33 13 -4 6 14 7 25 2 25 -5 0 -12 -9 -15 -21z"/>
<path d="M651 1224 c0 -11 3 -14 6 -6 3 7 2 16 -1 19 -3 4 -6 -2 -5 -13z"/>
<path d="M936 1202 c-22 -27 -24 -32 -7 -17 20 17 47 55 39 55 -2 0 -16 -17
-32 -38z"/>
<path d="M690 1198 c0 -8 -11 -27 -25 -42 -28 -30 -34 -62 -11 -53 11 4 13 1
9 -10 -4 -11 -3 -14 6 -9 6 4 11 13 10 19 -2 7 3 32 10 56 7 23 10 46 7 49 -3
3 -6 -2 -6 -10z m-20 -68 c0 -5 -5 -10 -11 -10 -5 0 -7 5 -4 10 3 6 8 10 11
10 2 0 4 -4 4 -10z"/>
<path d="M776 1193 c-6 -14 -5 -15 5 -6 7 7 10 15 7 18 -3 3 -9 -2 -12 -12z"/>
<path d="M2929 1182 c7 -14 6 -19 -4 -19 -8 0 -13 5 -12 10 1 5 -5 12 -13 14
-13 4 -13 3 0 -6 8 -6 11 -11 6 -11 -6 0 11 -21 38 -46 26 -26 50 -44 53 -40
3 3 1 12 -6 20 -9 10 -9 15 0 18 6 2 -5 20 -26 41 -41 41 -51 46 -36 19z"/>
<path d="M721 1172 c-7 -13 -11 -26 -8 -28 8 -8 29 25 25 38 -3 8 -9 4 -17
-10z"/>
<path d="M1027 1183 c-4 -3 -7 -11 -7 -17 0 -6 5 -5 12 2 6 6 9 14 7 17 -3 3
-9 2 -12 -2z"/>
<path d="M1987 1183 c-2 -4 -7 -24 -11 -43 l-6 -35 15 39 c13 35 15 61 2 39z"/>
<path d="M2861 1164 c-20 -23 1 -55 53 -79 l43 -20 -39 57 c-22 32 -40 58 -41
58 -1 -1 -8 -8 -16 -16z"/>
<path d="M795 1160 c-3 -5 -1 -10 4 -10 6 0 11 5 11 10 0 6 -2 10 -4 10 -3 0
-8 -4 -11 -10z"/>
<path d="M606 1142 c-2 -4 -1 -14 3 -21 6 -10 10 -9 14 3 6 16 -8 32 -17 18z"/>
<path d="M405 1130 c3 -5 8 -10 11 -10 2 0 4 5 4 10 0 6 -5 10 -11 10 -5 0 -7
-4 -4 -10z"/>
<path d="M770 1105 c-7 -9 -8 -15 -2 -15 5 0 12 7 16 15 3 8 4 15 2 15 -2 0
-9 -7 -16 -15z"/>
<path d="M615 1080 c-4 -12 -5 -24 -2 -27 3 -2 8 5 12 17 4 12 5 24 2 27 -3 2
-8 -5 -12 -17z"/>
<path d="M803 1094 c4 -4 -1 -13 -11 -20 -15 -12 -15 -13 -1 -14 9 0 22 6 28
14 9 11 8 15 -6 20 -10 4 -14 4 -10 0z"/>
<path d="M1982 1064 c-27 -33 -42 -72 -42 -112 0 -8 2 -13 5 -11 7 8 75 159
70 159 -2 0 -17 -16 -33 -36z"/>
<path d="M710 1081 c0 -7 -4 -10 -9 -6 -6 3 -15 -4 -21 -15 -6 -11 -7 -20 -2
-20 14 0 46 39 39 47 -4 3 -7 1 -7 -6z"/>
<path d="M591 1064 c0 -11 3 -14 6 -6 3 7 2 16 -1 19 -3 4 -6 -2 -5 -13z"/>
<path d="M725 1050 c-16 -16 -37 -32 -47 -36 -10 -3 -18 -10 -18 -15 0 -16 23
-10 49 14 22 19 23 19 11 2 -8 -11 -22 -29 -32 -40 -12 -14 -14 -25 -8 -35 8
-12 11 -11 16 8 4 12 9 22 13 22 4 0 13 16 20 35 7 19 16 35 20 35 5 0 11 9
14 20 7 28 -5 25 -38 -10z"/>
<path d="M876 1069 c6 -10 -23 -19 -40 -13 -17 7 -31 -12 -15 -21 11 -8 89 25
89 37 0 4 -9 6 -19 5 -11 0 -18 -4 -15 -8z"/>
<path d="M800 1013 c-16 -6 -30 -23 -30 -35 0 -13 25 2 38 22 7 11 11 20 10
19 -2 0 -10 -3 -18 -6z"/>
<path d="M875 990 c-3 -5 -2 -10 4 -10 5 0 13 5 16 10 3 6 2 10 -4 10 -5 0
-13 -4 -16 -10z"/>
<path d="M740 979 c0 -5 5 -7 10 -4 6 3 10 8 10 11 0 2 -4 4 -10 4 -5 0 -10
-5 -10 -11z"/>
<path d="M970 969 c0 -5 5 -7 10 -4 6 3 10 8 10 11 0 2 -4 4 -10 4 -5 0 -10
-5 -10 -11z"/>
<path d="M710 950 c0 -5 7 -10 15 -10 8 0 15 5 15 10 0 6 -7 10 -15 10 -8 0
-15 -4 -15 -10z"/>
<path d="M865 940 c-16 -17 -16 -20 -3 -15 9 4 19 13 22 21 7 19 2 18 -19 -6z"/>
<path d="M541 924 c0 -11 3 -14 6 -6 3 7 2 16 -1 19 -3 4 -6 -2 -5 -13z"/>
<path d="M705 919 c-12 -18 3 -22 20 -5 14 14 14 16 1 16 -8 0 -18 -5 -21 -11z"/>
<path d="M770 920 c-8 -5 -12 -12 -9 -15 4 -3 12 1 19 10 14 17 11 19 -10 5z"/>
<path d="M600 904 c0 -8 5 -12 10 -9 6 3 10 10 10 16 0 5 -4 9 -10 9 -5 0 -10
-7 -10 -16z"/>
<path d="M676 905 c-9 -26 -7 -32 5 -12 6 10 9 21 6 23 -2 3 -7 -2 -11 -11z"/>
<path d="M524 868 c10 -40 11 -41 14 -15 4 33 -3 57 -17 57 -5 0 -4 -18 3 -42z"/>
<path d="M884 895 c-10 -8 -14 -15 -8 -15 6 0 17 7 24 15 16 19 9 19 -16 0z"/>
<path d="M420 865 c7 -9 15 -13 17 -11 7 7 -7 26 -19 26 -6 0 -6 -6 2 -15z"/>
<path d="M560 868 c0 -7 4 -19 9 -27 11 -17 25 3 17 24 -7 18 -26 20 -26 3z"/>
<path d="M482 830 c0 -14 2 -19 5 -12 2 6 2 18 0 25 -3 6 -5 1 -5 -13z"/>
<path d="M421 794 c0 -11 3 -14 6 -6 3 7 2 16 -1 19 -3 4 -6 -2 -5 -13z"/>
<path d="M771 796 c-4 -6 -11 -17 -15 -24 -10 -17 15 -11 32 8 8 8 11 9 7 3
-4 -9 1 -13 15 -13 15 0 20 5 18 17 -3 19 -44 25 -57 9z"/>
<path d="M920 770 c-9 -6 -10 -10 -3 -10 6 0 15 5 18 10 8 12 4 12 -15 0z"/>
<path d="M885 761 c-3 -5 -2 -12 3 -15 5 -3 9 1 9 9 0 17 -3 19 -12 6z"/>
<path d="M680 704 c0 -8 5 -12 10 -9 6 4 8 11 5 16 -9 14 -15 11 -15 -7z"/>
<path d="M913 683 c-16 -6 -17 -33 -1 -33 6 0 8 3 5 7 -4 3 -2 12 4 20 12 14
11 14 -8 6z"/>
<path d="M836 639 c-22 -22 -35 -39 -28 -39 6 0 14 5 17 11 4 6 13 8 21 5 7
-3 17 0 21 7 7 12 16 58 11 56 -2 -1 -21 -19 -42 -40z"/>
<path d="M719 563 c-13 -16 -12 -17 4 -4 16 13 21 21 13 21 -2 0 -10 -8 -17
-17z"/>
<path d="M830 555 c-7 -8 -8 -15 -2 -15 5 0 15 7 22 15 7 8 8 15 2 15 -5 0
-15 -7 -22 -15z"/>
<path d="M722 535 c-11 -13 -22 -22 -25 -19 -5 5 -47 -49 -47 -61 0 -3 8 -4
18 -1 14 5 18 1 17 -13 -1 -22 -24 -53 -34 -47 -9 6 -8 -40 1 -49 4 -4 4 -13
1 -21 -8 -22 5 -16 18 7 7 13 7 19 1 15 -25 -15 -21 17 7 51 16 20 28 40 25
45 -3 4 2 5 10 2 9 -3 13 -11 9 -18 -3 -6 3 -3 14 7 25 22 40 22 22 0 -13 -17
-13 -17 13 -1 16 11 40 16 62 14 20 -2 39 0 42 5 3 5 0 9 -7 9 -7 0 -4 7 7 15
23 17 12 20 -19 4 -12 -7 -19 -8 -15 -4 13 14 -16 34 -35 23 -19 -10 -37 -3
-37 15 0 8 3 8 9 -1 6 -11 10 -10 19 1 9 11 8 13 -8 12 -11 -1 -26 -7 -32 -13
-7 -7 -15 -12 -18 -12 -10 0 -8 34 3 48 5 6 7 12 4 12 -3 0 -14 -11 -25 -25z
m23 -75 c-3 -5 -12 -10 -18 -10 -7 0 -6 4 3 10 19 12 23 12 15 0z"/>
<path d="M850 420 c-9 -6 -10 -10 -3 -10 6 0 15 5 18 10 8 12 4 12 -15 0z"/>
<path d="M800 400 c-8 -5 -12 -11 -9 -14 3 -3 14 1 25 9 21 16 8 20 -16 5z"/>
<path d="M2481 322 c13 -17 28 -31 32 -31 14 -1 -13 38 -35 50 -21 11 -21 10
3 -19z"/>
<path d="M2550 262 c0 -5 7 -15 15 -22 8 -7 15 -9 15 -6 0 4 -7 14 -15 22 -8
9 -15 11 -15 6z"/>
<path d="M596 195 c-3 -10 -3 -22 3 -28 12 -12 20 4 11 27 -6 19 -7 19 -14 1z"/>
<path d="M639 173 l-24 -26 27 19 c15 10 28 22 28 27 0 12 -5 8 -31 -20z"/>
<path d="M819 173 c-1 -2 -2 -6 -3 -10 -1 -5 -5 -14 -10 -22 -7 -11 -3 -13 19
-7 19 5 31 3 36 -6 5 -7 9 -8 9 -3 0 6 15 10 33 9 25 -1 26 0 5 3 -18 3 -28
10 -28 21 0 12 -9 17 -30 17 -16 0 -31 -1 -31 -2z"/>
<path d="M2516 172 c5 -4 23 -18 39 -32 l30 -25 -29 33 c-17 17 -34 32 -40 32
-6 0 -6 -3 0 -8z"/>
<path d="M677 164 c-3 -4 -2 -15 4 -26 11 -20 21 -18 25 7 1 9 -4 11 -14 8
-10 -4 -13 -2 -8 5 8 13 3 16 -7 6z"/>
<path d="M729 133 l-24 -28 28 24 c25 23 32 31 24 31 -2 0 -14 -12 -28 -27z"/>
<path d="M693 68 c-2 -16 1 -18 10 -9 7 7 8 14 1 21 -6 6 -10 2 -11 -12z"/>
</g>
</svg>
